# xmcd CD database file
#
# Track frame offsets:
#       150
#       12890
#       29041
#       50075
#       77216
#       94172
#       118416
#       142292
#       169224
#
# Disc length: 2608 seconds
#
# Revision: 2
# Processed by: cddbd v1.5.1PL2 Copyright (c) Steve Scherf et al.
# Submitted via: FreeDB 13.2
#
DISCID=860a2e09
DTITLE=Poul Halberg Powertrio - Strange Brew
DYEAR=2006
DGENRE=Psychadel. Rock
TTITLE0=Strange Brew
TTITLE1=Fire
TTITLE2=Politician
TTITLE3=Had to Cry Today
TTITLE4=Crossroads
TTITLE5=Voodoo Child
TTITLE6=White Room
TTITLE7=Have You Ever Loved a Woman
TTITLE8=Sunshine of Your Love
EXTD=
EXTT0=
EXTT1=
EXTT2=
EXTT3=
EXTT4=
EXTT5=
EXTT6=
EXTT7=
EXTT8=
PLAYORDER=
